<?xml version="1.0" encoding="UTF-8"?>
<svg width="20px" height="20px" viewBox="0 0 20 20" version="1.1" xmlns="http://www.w3.org/2000/svg" xmlns:xlink="http://www.w3.org/1999/xlink">
    <!-- Generator: Sketch 50.2 (55047) - http://www.bohemiancoding.com/sketch -->
    <title>CLOSE</title>
    <desc>Created with Sketch.</desc>
    <defs></defs>
    <g id="E3---Layer-Image" stroke="none" stroke-width="1" fill="none" fill-rule="evenodd">
        <g id="Component_E3_Tablet" transform="translate(-959.000000, -45.000000)" fill="#FFFFFF" fill-rule="nonzero">
            <g id="OVERLAY">
                <g id="CLOSE" transform="translate(944.000000, 30.000000)">
                    <path d="M32.4817304,15.6801573 L25,23.1618877 L17.5182696,15.6801573 C16.6113932,14.7732809 16.5114607,14.7732809 15.6801573,15.6801573 C14.8488539,16.5870337 14.7732809,16.6869662 15.6801573,17.5182696 L23.1618877,25 L15.6801573,32.4817304 C14.7732809,33.3886068 14.7732809,33.4885393 15.6801573,34.3198427 C16.5870337,35.2267191 16.6869662,35.2267191 17.5182696,34.3198427 L25,26.8381123 L32.4817304,34.3198427 C33.3886068,35.2267191 33.4885393,35.2267191 34.3198427,34.3198427 C35.2267191,33.4129663 35.2267191,33.3130338 34.3198427,32.4817304 L26.8381123,25 L34.3198427,17.5182696 C35.2267191,16.6113932 35.2267191,16.5114607 34.3198427,15.6801573 C33.4885393,14.7732809 33.3886068,14.7732809 32.4817304,15.6801573 Z" transform="translate(25.000000, 25.000000) rotate(-90.000000) translate(-25.000000, -25.000000) "></path>
                </g>
            </g>
        </g>
    </g>
</svg>