<?xml version="1.0" encoding="UTF-8"?>
<svg width="108px" height="30px" viewBox="0 0 108 30" version="1.1" xmlns="http://www.w3.org/2000/svg" xmlns:xlink="http://www.w3.org/1999/xlink">
    <!-- Generator: Sketch 50 (54983) - http://www.bohemiancoding.com/sketch -->
    <desc>Created with Sketch.</desc>
    <defs>
        <polygon id="path-1" points="0.268590437 0.457367803 10.9344948 0.457367803 10.9344948 10.4817427 0.268590437 10.4817427"></polygon>
        <polygon id="path-3" points="0 0.137017488 89.0558068 0.137017488 89.0558068 22.6727886 0 22.6727886"></polygon>
    </defs>
    <g id="T2---PLP" stroke="none" stroke-width="1" fill="none" fill-rule="evenodd">
        <g id="T2_Desktop-" transform="translate(-70.000000, -40.000000)">
            <g id="A1---Header" transform="translate(70.000000, 40.000000)">
                <g id="LOGO">
                    <g id="Nescafe">
                        <g id="Group-3" transform="translate(92.432432, 0.000000)">
                            <mask id="mask-2" fill="white">
                                <use xlink:href="#path-1"></use>
                            </mask>
                            <g id="Clip-2"></g>
                            <path d="M4.9222079,3.80133137 C4.63711435,5.59643126 4.02850728,7.32966275 2.68948441,8.7856322 C2.05118919,9.47626675 1.13260291,10.2040223 0.268590437,10.4817427 L3.93420374,10.4817427 C5.05624116,10.4817427 7.25141788,9.90842891 8.41187526,8.65822914 C10.5162412,6.36680729 10.4830603,3.85449236 10.9344948,0.457230317 L7.77750936,0.457230317 C6.97942204,0.457230317 5.44349688,0.499850764 4.9222079,3.80133137" id="Fill-1" fill="#EB2227" opacity="0.900000036" mask="url(#mask-2)"></path>
                        </g>
                        <path d="M65.8253477,23.4067142 C66.3854293,21.2324431 67.1162455,18.9994079 67.9559162,16.9702663 C68.864242,18.7915077 69.5982199,21.0623834 70.22786,23.4067142 L65.8253477,23.4067142 Z M70.9636446,12.972973 L65.9608513,12.972973 C63.8781609,16.7093893 62.2074013,22.3467348 60.8108108,29.1891892 L64.6844073,29.1891892 C64.8203626,28.2209173 64.9920005,27.1921007 65.2273251,26.1294502 L70.8597585,26.1294502 C71.092373,27.1921007 71.2951768,28.2507446 71.4654597,29.1891892 L76.2162162,29.1891892 C74.9266735,23.2891861 72.8760522,16.7053827 70.9636446,12.972973 Z" id="Fill-4" fill="#222222"></path>
                        <g id="Group-8" transform="translate(0.000000, 6.486486)">
                            <mask id="mask-4" fill="white">
                                <use xlink:href="#path-3"></use>
                            </mask>
                            <g id="Clip-7"></g>
                            <path d="M84.3368068,3.5041399 L17.6826041,3.5041399 L17.6826041,22.3780986 C17.3419014,22.5810874 16.3501176,22.6727886 15.5719419,22.6727886 C12.9439824,22.6727886 11.9936716,21.8234404 10.5951851,19.3012146 L3.85069865,7.3150779 L3.85069865,22.3384801 L-4.45945946e-05,22.3384801 L-4.45945946e-05,0.44372655 C0.341995946,0.242518283 1.32709054,0.137017488 2.10838784,0.137017488 C4.73500946,0.137017488 5.68621216,0.99081717 7.08692838,3.5041399 L13.8621851,15.473806 L13.8621851,0.481119237 L89.0558068,0.481119237 C89.0558068,2.60805087 85.4298203,3.5041399 84.3368068,3.5041399" id="Fill-6" fill="#222222" mask="url(#mask-4)"></path>
                        </g>
                        <path d="M98.5969331,26.8472873 C96.977364,26.8472873 95.9982212,26.7045644 95.494065,25.9291947 C95.0539079,25.2581226 95.0238675,24.1167967 95.0238675,22.8121628 L101.123374,22.8121628 L101.123374,19.6612799 L95.0238675,19.6612799 L95.0238675,16.131175 L102.100775,16.131175 L102.100775,12.972973 L90.8108108,12.972973 L90.8108108,22.8816945 C90.8108108,25.2187823 91.1795676,27.3088496 92.1208333,28.3060802 C93.3407346,29.5393526 95.4270183,30 98.1885579,30 C99.6378982,30 101.190421,29.7520647 102.162162,29.2566515 L102.162162,26.3129913 C100.986233,26.6752879 99.7763452,26.8472873 98.5969331,26.8472873" id="Fill-9" fill="#222222"></path>
                        <path d="M24.949862,25.9291947 C24.5114632,25.2576651 24.4770705,24.1167967 24.4770705,22.8121628 L30.5811319,22.8121628 L30.5811319,19.6608225 L24.4770705,19.6608225 L24.4770705,16.131175 L31.5567543,16.131175 L31.5567543,12.972973 L20.2702703,12.972973 L20.2702703,22.8816945 C20.2702703,25.2187823 20.634224,27.3088496 21.5793718,28.299676 C22.7944375,29.5393526 24.8815119,30 27.6468637,30 C29.0970191,30 30.6433871,29.7511498 31.6216216,29.256194 L31.6216216,26.3129913 C30.4426901,26.6752879 29.230672,26.8472873 28.0495637,26.8472873 C26.4370223,26.8472873 25.456611,26.7036495 24.949862,25.9291947" id="Fill-11" fill="#222222"></path>
                        <path d="M38.3608615,17.7168603 C37.8447808,17.368213 37.9508369,15.993712 38.3608615,15.685688 C38.7739923,15.3705215 39.3908041,15.2740967 40.5250279,15.2740967 C42.2445574,15.2740967 43.6814184,15.5807813 45.1639855,16.0285321 L45.1639855,13.0929301 C44.4748425,12.6768746 42.7548693,12.1621622 40.3217906,12.1621622 C38.3608615,12.1621622 36.5082072,12.4371516 35.1303649,13.7473694 C33.8612412,14.9584837 33.588779,19.1346632 34.9976837,20.6176422 C36.4389822,22.1403518 40.2831844,22.6925628 41.660583,23.6291341 C42.1744449,23.9710853 42.0355513,25.3531753 41.660583,25.6594135 C41.3157896,25.9446705 40.6293091,26.1120748 39.4946415,26.1120748 C37.7777746,26.1120748 36.0941888,25.7683379 34.515328,25.3179088 L34.515328,28.2919021 C35.3074209,28.73876 36.9519567,29.1891892 39.5620914,29.1891892 C41.3486271,29.1891892 43.5110185,28.8436667 44.7823609,27.876293 C46.4322217,26.5986633 46.7743526,22.5885489 45.1959355,20.86049 C43.8243057,19.3377804 39.7333788,18.6489675 38.3608615,17.7168603" id="Fill-13" fill="#222222"></path>
                        <path d="M52.9548043,25.242708 C52.4816318,24.5145947 52.3479943,23.0266139 52.3479943,20.6709796 C52.3479943,18.3198178 52.4816318,16.8680637 52.9548043,16.1059599 C53.389235,15.4189931 54.5023004,15.2481459 55.6810962,15.2481459 C56.7606434,15.2481459 57.7718482,15.3832136 58.8531366,15.7638182 L58.8531366,12.8553904 C57.9760045,12.4059102 56.6248294,12.1621622 55.3807383,12.1621622 C53.0531824,12.1621622 50.7334619,12.5069873 49.4528056,13.8603477 C48.2413621,15.143938 47.8378378,17.8327691 47.8378378,20.6709796 C47.8378378,23.5047177 48.2413621,26.1765535 49.4528056,27.4583548 C50.7334619,28.8434696 53.0531824,29.1891892 55.3807383,29.1891892 C56.5251454,29.1891892 57.7387653,29.0170002 58.5462492,28.6006161 L59.1891892,25.5848496 C58.0069109,25.9663488 56.9965767,26.1067834 55.6810962,26.1067834 C54.5023004,26.1067834 53.389235,25.9390669 52.9548043,25.242708" id="Fill-15" fill="#222222"></path>
                        <path d="M77.8378378,27.2410863 C77.8378378,29.6820158 79.8055571,30 82.079502,30 L82.079502,22.8130985 L88.5776126,22.8130985 L88.5776126,19.662538 L82.079502,19.662538 L82.079502,16.131769 L89.1891892,16.131769 L89.1891892,12.972973 L77.8378378,12.972973 L77.8378378,27.2410863 Z" id="Fill-17" fill="#222222"></path>
                        <path d="M105.982526,27.4926155 L106.154487,27.4926155 C106.356822,27.4926155 106.520944,27.4244317 106.520944,27.2589857 C106.520944,27.111087 106.413652,27.009814 106.183392,27.009814 C106.087368,27.009814 106.02025,27.0203423 105.982526,27.0318734 L105.982526,27.4926155 Z M105.970768,28.3985578 L105.605291,28.3985578 L105.605291,26.7872139 C105.748836,26.7656557 105.952152,26.7370787 106.212787,26.7370787 C106.510166,26.7370787 106.646852,26.7872139 106.751694,26.8629179 C106.846738,26.9306004 106.914346,27.0494207 106.914346,27.2088505 C106.914346,27.4058817 106.769331,27.534729 106.586593,27.5928858 L106.586593,27.6129399 C106.741406,27.663075 106.818813,27.7869089 106.867314,28.0075036 C106.914346,28.2516618 106.95403,28.3414037 106.984894,28.3985578 L106.597861,28.3985578 C106.547889,28.3414037 106.520944,28.2040334 106.472442,28.0075036 C106.443537,27.8390494 106.347514,27.7598359 106.145178,27.7598359 L105.970768,27.7598359 L105.970768,28.3985578 Z M104.998285,27.5623034 C104.998285,28.2827456 105.527884,28.8522809 106.229444,28.8522809 C106.914346,28.8643134 107.433167,28.2827456 107.433167,27.5713277 C107.433167,26.854395 106.914346,26.2733285 106.212787,26.2733285 C105.527884,26.2733285 104.998285,26.854395 104.998285,27.5623034 Z M107.837838,27.5623034 C107.837838,28.4707524 107.1255,29.1891892 106.221115,29.1891892 C105.317221,29.1891892 104.594595,28.4707524 104.594595,27.5623034 C104.594595,26.6568625 105.317221,25.9459459 106.229444,25.9459459 C107.1255,25.9459459 107.837838,26.6568625 107.837838,27.5623034 Z" id="Fill-19" fill="#222222"></path>
                    </g>
                </g>
            </g>
        </g>
    </g>
</svg>