<?xml version="1.0" standalone="no"?>
<!DOCTYPE svg PUBLIC "-//W3C//DTD SVG 1.0//EN" "http://www.w3.org/TR/2001/REC-SVG-20010904/DTD/svg10.dtd">
<svg xmlns="http://www.w3.org/2000/svg" xmlns:xlink="http://www.w3.org/1999/xlink" id="body_1" width="20" height="20">

<g transform="matrix(1.25 0 0 1.25 0 0)">
	<g transform="matrix(1 0 0 1 0 0)">
	</g>
    <path transform="matrix(1 0 0 1 0 0)"  d="M6.5 12C 8.464961 12 10.28066 10.951706 11.26314 9.25C 12.24562 7.5482936 12.24562 5.4517055 11.26314 3.7499993C 10.280659 2.048293 8.464961 1 6.5 1C 3.4624338 1 1 3.462434 1 6.5000005C 1 9.537567 3.4624338 12 6.5 12zM13 6.5C 13 8.822227 11.7611065 10.968052 9.75 12.129166C 7.7388926 13.290278 5.2611065 13.290278 3.2499993 12.129166C 1.2388921 10.968052 0 8.822227 0 6.5C 0 2.9101489 2.9101493 0 6.5000005 0C 10.089851 0 13 2.9101489 13 6.5z" stroke="none" fill="#FFFFFF" fill-rule="nonzero" />
	<g transform="matrix(1 0 0 1 0 0)">
	</g>
    <path transform="matrix(1 0 0 1 0 0)"  d="M10.344 11.742C 10.374 11.782 10.406 11.82 10.441999 11.856999L10.441999 11.856999L14.292 15.706999C 14.682466 16.09774 15.315759 16.097965 15.7065 15.707499C 16.097242 15.317034 16.097466 14.683741 15.707 14.292999L15.707 14.292999L11.857 10.442999C 11.821249 10.406809 11.7828045 10.37338 11.742001 10.3429985C 11.349718 10.87788 10.878321 11.349951 10.344001 11.742998L10.344001 11.742998L10.344 11.742z" stroke="none" fill="#FFFFFF" fill-rule="nonzero" />
	<g transform="matrix(1 0 0 1 0 0)">
	</g>
    <path transform="matrix(1 0 0 1 0 0)"  d="M6.5 3C 6.7761426 3 7 3.2238576 7 3.5L7 3.5L7 6L9.5 6C 9.776142 6 10 6.223858 10 6.5C 10 6.7761426 9.776142 7 9.5 7L9.5 7L7 7L7 9.5C 7 9.776142 6.776142 10 6.5 10C 6.2238574 10 6 9.776142 6 9.5L6 9.5L6 7L3.5 7C 3.2238576 7 3 6.776142 3 6.5C 3 6.2238574 3.2238576 6 3.5 6L3.5 6L6 6L6 3.5C 6 3.2238576 6.2238574 3 6.5 3z" stroke="none" fill="#FFFFFF" fill-rule="nonzero" />
</g>
</svg>